<svg xmlns="http://www.w3.org/2000/svg" width="95" height="24" fill="none"><g clip-path="url(#a)"><mask id="b" width="95" height="24" x="0" y="0" maskUnits="userSpaceOnUse" style="mask-type:luminance"><path fill="#fff" d="M95 0H0v24h95V0Z"/></mask><g mask="url(#b)"><mask id="c" width="95" height="24" x="0" y="0" maskUnits="userSpaceOnUse" style="mask-type:luminance"><path fill="#fff" d="M95 0H0v24h95V0Z"/></mask><g mask="url(#c)"><path fill="#fff" fill-rule="evenodd" d="M13.436 24 23.97 13.672h-.002c4.151-4.067 5.836-4.685 13.752-4.685h31.573L78.377 0H36.523C25.927 0 22.931 1.02 16.716 7.235L0 24h13.436Zm24.475-13.578h30.026l-8.327 8.415H38.067c-3.949 0-4.822.188-6.781 2.168L28.322 24H15.863l9.21-9.307c3.617-3.653 4.864-4.27 12.838-4.27ZM95 0 71.186 24H56.458l23.75-24H95ZM79.32 23.24c.495.508 1.118.76 1.868.76s1.365-.253 1.853-.755c.487-.503.73-1.125.73-1.865s-.245-1.363-.735-1.87c-.49-.508-1.108-.76-1.858-.76s-1.37.253-1.863.755c-.492.503-.74 1.125-.74 1.865s.248 1.363.745 1.87Zm.31-3.432a2.06 2.06 0 0 1 1.543-.645c.616 0 1.13.215 1.544.645.413.43.62.952.62 1.567s-.207 1.135-.62 1.563c-.416.427-.928.64-1.544.64s-1.13-.215-1.544-.645a2.172 2.172 0 0 1-.62-1.563c0-.613.207-1.133.62-1.563Zm1.036 3.03v-1.03l.002.002h.582l.492 1.03h.601l-.541-1.105a.815.815 0 0 0 .388-.332c.076-.138.114-.348.114-.63 0-.283-.094-.495-.282-.636-.188-.142-.47-.212-.844-.212h-1.084v2.912h.572Zm-.01-1.483v-.98h.472c.409 0 .612.163.612.49 0 .173-.04.298-.12.375-.076.078-.204.115-.383.115h-.581Z" clip-rule="evenodd"/></g></g></g><defs><clipPath id="a"><path fill="#fff" d="M0 0h95v24H0z"/></clipPath></defs></svg>