<svg xmlns="http://www.w3.org/2000/svg" width="24" height="24" fill="none"><g fill="#E10500" clip-path="url(#a)"><path d="M23.558 9.364h-6.571a.206.206 0 0 0-.205.205v1.232c0 .113.092.206.205.206h6.571a.206.206 0 0 0 .206-.206V9.57a.206.206 0 0 0-.206-.205Zm-3.44 3.49h-3.131a.206.206 0 0 0-.205.206v1.232c0 .113.092.206.205.206h3.132a.206.206 0 0 0 .205-.206V13.06a.206.206 0 0 0-.206-.205Zm-8.565-5.788H10.44a.287.287 0 0 0-.287.288v6.366c0 .092.043.177.118.23l3.822 2.789a.287.287 0 0 0 .4-.062l.66-.901v-.003a.287.287 0 0 0-.064-.4l-3.252-2.351V7.354a.285.285 0 0 0-.285-.288Z"/><path d="M19.96 16.087h-1.484a.422.422 0 0 0-.357.197 8.236 8.236 0 0 1-3.743 3.183 8.134 8.134 0 0 1-3.183.642 8.14 8.14 0 0 1-5.783-2.395 8.141 8.141 0 0 1-2.395-5.783A8.142 8.142 0 0 1 5.41 6.148a8.142 8.142 0 0 1 5.783-2.396 8.141 8.141 0 0 1 5.783 2.395c.433.433.816.913 1.143 1.43a.422.422 0 0 0 .357.198h1.483c.177 0 .29-.185.21-.342a10.039 10.039 0 0 0-8.855-5.537C5.767 1.827 1.159 6.368 1.149 11.91c-.01 5.552 4.49 10.058 10.041 10.058a10.04 10.04 0 0 0 8.98-5.54.236.236 0 0 0-.21-.341Z"/></g><defs><clipPath id="a"><path fill="#fff" d="M.943.43h23v23h-23z"/></clipPath></defs></svg>